HIERARCHY
ROOT Hips
{
	OFFSET -351.999878 -572.954773 89.312325
	CHANNELS 6 Xposition Yposition Zposition Zrotation Yrotation Xrotation
	JOINT Spine
	{
		OFFSET 0.000000 2.080078 8.814247
		CHANNELS 6 Xposition Yposition Zposition Zrotation Yrotation Xrotation
		JOINT Spine1
		{
			OFFSET 0.000000 0.000000 8.844139
			CHANNELS 6 Xposition Yposition Zposition Zrotation Yrotation Xrotation
			JOINT Spine2
			{
				OFFSET 0.000000 0.000000 11.682266
				CHANNELS 6 Xposition Yposition Zposition Zrotation Yrotation Xrotation
				JOINT Spine3
				{
					OFFSET 0.000000 0.000000 11.746696
					CHANNELS 6 Xposition Yposition Zposition Zrotation Yrotation Xrotation
					JOINT Neck
					{
						OFFSET 0.000000 0.000000 17.658264
						CHANNELS 6 Xposition Yposition Zposition Zrotation Yrotation Xrotation
						JOINT Neck1
						{
							OFFSET 0.000000 0.000000 5.101517
							CHANNELS 6 Xposition Yposition Zposition Zrotation Yrotation Xrotation
							JOINT Head
							{
								OFFSET 0.000000 0.000000 5.101517
								CHANNELS 6 Xposition Yposition Zposition Zrotation Yrotation Xrotation
								JOINT HeadEnd
								{
									OFFSET 0.000000 0.000000 11.655090
									CHANNELS 6 Xposition Yposition Zposition Zrotation Yrotation Xrotation
									End Site
									{
										OFFSET 0.000000 0.000000 0.100006
									}
								}
							}
						}
					}
					JOINT RightShoulder
					{
						OFFSET -2.625397 0.000000 11.175217
						CHANNELS 6 Xposition Yposition Zposition Zrotation Yrotation Xrotation
						JOINT RightArm
						{
							OFFSET 0.000000 0.000000 10.434708
							CHANNELS 6 Xposition Yposition Zposition Zrotation Yrotation Xrotation
							JOINT RightForeArm
							{
								OFFSET 0.000000 0.000000 29.628418
								CHANNELS 6 Xposition Yposition Zposition Zrotation Yrotation Xrotation
								JOINT RightHand
								{
									OFFSET 0.000000 0.000000 22.857605
									CHANNELS 6 Xposition Yposition Zposition Zrotation Yrotation Xrotation
									JOINT RightHandThumb1
									{
										OFFSET -2.867310 -2.944275 3.959564
										CHANNELS 6 Xposition Yposition Zposition Zrotation Yrotation Xrotation
										JOINT RightHandThumb2
										{
											OFFSET 0.000000 0.000000 3.350403
											CHANNELS 6 Xposition Yposition Zposition Zrotation Yrotation Xrotation
											JOINT RightHandThumb3
											{
												OFFSET 0.000000 0.000000 3.756516
												CHANNELS 6 Xposition Yposition Zposition Zrotation Yrotation Xrotation
												JOINT RightHandThumb4
												{
													OFFSET 0.000000 0.000000 3.147339
													CHANNELS 6 Xposition Yposition Zposition Zrotation Yrotation Xrotation
													End Site
													{
														OFFSET 0.000000 0.000000 0.100006
													}
												}
											}
										}
									}
									JOINT RightHandIndex1
									{
										OFFSET -0.086761 -2.345276 10.030899
										CHANNELS 6 Xposition Yposition Zposition Zrotation Yrotation Xrotation
										JOINT RightHandIndex2
										{
											OFFSET 0.000000 0.000000 4.061096
											CHANNELS 6 Xposition Yposition Zposition Zrotation Yrotation Xrotation
											JOINT RightHandIndex3
											{
												OFFSET 0.000000 0.000000 3.248871
												CHANNELS 6 Xposition Yposition Zposition Zrotation Yrotation Xrotation
												JOINT RightHandIndex4
												{
													OFFSET 0.000000 0.000000 2.639709
													CHANNELS 6 Xposition Yposition Zposition Zrotation Yrotation Xrotation
													End Site
													{
														OFFSET 0.000000 0.000000 0.100006
													}
												}
											}
										}
									}
									JOINT RightHandMiddle1
									{
										OFFSET 0.104095 -0.006775 9.502945
										CHANNELS 6 Xposition Yposition Zposition Zrotation Yrotation Xrotation
										JOINT RightHandMiddle2
										{
											OFFSET 0.000000 0.000000 4.568726
											CHANNELS 6 Xposition Yposition Zposition Zrotation Yrotation Xrotation
											JOINT RightHandMiddle3
											{
												OFFSET 0.000000 0.000000 3.654984
												CHANNELS 6 Xposition Yposition Zposition Zrotation Yrotation Xrotation
												JOINT RightHandMiddle4
												{
													OFFSET 0.000000 0.000000 2.741241
													CHANNELS 6 Xposition Yposition Zposition Zrotation Yrotation Xrotation
													End Site
													{
														OFFSET 0.000000 0.000000 0.100006
													}
												}
											}
										}
									}
									JOINT RightHandRing1
									{
										OFFSET 0.086761 2.267456 8.921707
										CHANNELS 6 Xposition Yposition Zposition Zrotation Yrotation Xrotation
										JOINT RightHandRing2
										{
											OFFSET 0.000000 0.000000 4.061096
											CHANNELS 6 Xposition Yposition Zposition Zrotation Yrotation Xrotation
											JOINT RightHandRing3
											{
												OFFSET 0.000000 0.000000 3.654984
												CHANNELS 6 Xposition Yposition Zposition Zrotation Yrotation Xrotation
												JOINT RightHandRing4
												{
													OFFSET 0.000000 0.000000 2.741241
													CHANNELS 6 Xposition Yposition Zposition Zrotation Yrotation Xrotation
													End Site
													{
														OFFSET 0.000000 0.000000 0.100006
													}
												}
											}
										}
									}
									JOINT RightHandPinky1
									{
										OFFSET -0.173492 4.467224 7.976990
										CHANNELS 6 Xposition Yposition Zposition Zrotation Yrotation Xrotation
										JOINT RightHandPinky2
										{
											OFFSET 0.000000 0.000000 3.350403
											CHANNELS 6 Xposition Yposition Zposition Zrotation Yrotation Xrotation
											JOINT RightHandPinky3
											{
												OFFSET 0.000000 0.000000 2.842758
												CHANNELS 6 Xposition Yposition Zposition Zrotation Yrotation Xrotation
												JOINT RightHandPinky4
												{
													OFFSET 0.000000 0.000000 2.639709
													CHANNELS 6 Xposition Yposition Zposition Zrotation Yrotation Xrotation
													End Site
													{
														OFFSET 0.000000 0.000000 0.100006
													}
												}
											}
										}
									}
									JOINT RightForeArmEnd
									{
										OFFSET 0.000000 0.000000 0.000000
										CHANNELS 6 Xposition Yposition Zposition Zrotation Yrotation Xrotation
										End Site
										{
											OFFSET 0.000000 0.000000 0.100006
										}
									}
								}
								JOINT RightArmEnd
								{
									OFFSET 0.000000 0.000000 0.000000
									CHANNELS 6 Xposition Yposition Zposition Zrotation Yrotation Xrotation
									End Site
									{
										OFFSET 0.000000 0.000000 0.100006
									}
								}
							}
						}
					}
					JOINT LeftShoulder
					{
						OFFSET 2.625397 0.000000 11.175217
						CHANNELS 6 Xposition Yposition Zposition Zrotation Yrotation Xrotation
						JOINT LeftArm
						{
							OFFSET 0.000000 0.000000 10.813629
							CHANNELS 6 Xposition Yposition Zposition Zrotation Yrotation Xrotation
							JOINT LeftForeArm
							{
								OFFSET 0.000000 0.000000 28.724777
								CHANNELS 6 Xposition Yposition Zposition Zrotation Yrotation Xrotation
								JOINT LeftHand
								{
									OFFSET 0.644379 0.328857 25.716171
									CHANNELS 6 Xposition Yposition Zposition Zrotation Yrotation Xrotation
									JOINT LeftHandThumb1
									{
										OFFSET 2.867310 -2.944275 3.959564
										CHANNELS 6 Xposition Yposition Zposition Zrotation Yrotation Xrotation
										JOINT LeftHandThumb2
										{
											OFFSET 0.000000 0.000000 3.350403
											CHANNELS 6 Xposition Yposition Zposition Zrotation Yrotation Xrotation
											JOINT LeftHandThumb3
											{
												OFFSET 0.000000 0.000000 3.756516
												CHANNELS 6 Xposition Yposition Zposition Zrotation Yrotation Xrotation
												JOINT LeftHandThumb4
												{
													OFFSET 0.000000 0.000000 3.100006
													CHANNELS 6 Xposition Yposition Zposition Zrotation Yrotation Xrotation
													End Site
													{
														OFFSET 0.000000 0.000000 0.100006
													}
												}
											}
										}
									}
									JOINT LeftHandIndex1
									{
										OFFSET 0.086761 -2.345276 10.030899
										CHANNELS 6 Xposition Yposition Zposition Zrotation Yrotation Xrotation
										JOINT LeftHandIndex2
										{
											OFFSET 0.000000 0.000000 4.061096
											CHANNELS 6 Xposition Yposition Zposition Zrotation Yrotation Xrotation
											JOINT LeftHandIndex3
											{
												OFFSET 0.000000 0.000000 3.248871
												CHANNELS 6 Xposition Yposition Zposition Zrotation Yrotation Xrotation
												JOINT LeftHandIndex4
												{
													OFFSET 0.000000 0.000000 2.639709
													CHANNELS 6 Xposition Yposition Zposition Zrotation Yrotation Xrotation
													End Site
													{
														OFFSET 0.000000 0.000000 0.100006
													}
												}
											}
										}
									}
									JOINT LeftHandMiddle1
									{
										OFFSET -0.104095 -0.006775 9.502945
										CHANNELS 6 Xposition Yposition Zposition Zrotation Yrotation Xrotation
										JOINT LeftHandMiddle2
										{
											OFFSET 0.000000 0.000000 4.568726
											CHANNELS 6 Xposition Yposition Zposition Zrotation Yrotation Xrotation
											JOINT LeftHandMiddle3
											{
												OFFSET 0.000000 0.000000 3.654984
												CHANNELS 6 Xposition Yposition Zposition Zrotation Yrotation Xrotation
												JOINT LeftHandMiddle4
												{
													OFFSET 0.000000 0.000000 2.741241
													CHANNELS 6 Xposition Yposition Zposition Zrotation Yrotation Xrotation
													End Site
													{
														OFFSET 0.000000 0.000000 0.100006
													}
												}
											}
										}
									}
									JOINT LeftHandRing1
									{
										OFFSET -0.086761 2.267456 8.921707
										CHANNELS 6 Xposition Yposition Zposition Zrotation Yrotation Xrotation
										JOINT LeftHandRing2
										{
											OFFSET 0.000000 0.000000 4.061096
											CHANNELS 6 Xposition Yposition Zposition Zrotation Yrotation Xrotation
											JOINT LeftHandRing3
											{
												OFFSET 0.000000 0.000000 3.654984
												CHANNELS 6 Xposition Yposition Zposition Zrotation Yrotation Xrotation
												JOINT LeftHandRing4
												{
													OFFSET 0.000000 0.000000 2.741241
													CHANNELS 6 Xposition Yposition Zposition Zrotation Yrotation Xrotation
													End Site
													{
														OFFSET 0.000000 0.000000 0.100006
													}
												}
											}
										}
									}
									JOINT LeftHandPinky1
									{
										OFFSET 0.173492 4.467224 7.976990
										CHANNELS 6 Xposition Yposition Zposition Zrotation Yrotation Xrotation
										JOINT LeftHandPinky2
										{
											OFFSET 0.000000 0.000000 3.350403
											CHANNELS 6 Xposition Yposition Zposition Zrotation Yrotation Xrotation
											JOINT LeftHandPinky3
											{
												OFFSET 0.000000 0.000000 2.842758
												CHANNELS 6 Xposition Yposition Zposition Zrotation Yrotation Xrotation
												JOINT LeftHandPinky4
												{
													OFFSET 0.000000 0.000000 2.639709
													CHANNELS 6 Xposition Yposition Zposition Zrotation Yrotation Xrotation
													End Site
													{
														OFFSET 0.000000 0.000000 0.100006
													}
												}
											}
										}
									}
									JOINT LeftForeArmEnd
									{
										OFFSET 0.000000 0.000000 0.000000
										CHANNELS 6 Xposition Yposition Zposition Zrotation Yrotation Xrotation
										End Site
										{
											OFFSET 0.000000 0.000000 0.100006
										}
									}
								}
								JOINT LeftArmEnd
								{
									OFFSET 0.000000 0.000000 0.000000
									CHANNELS 6 Xposition Yposition Zposition Zrotation Yrotation Xrotation
									End Site
									{
										OFFSET 0.000000 0.000000 0.100006
									}
								}
							}
						}
					}
				}
			}
		}
	}
	JOINT RightUpLeg
	{
		OFFSET -11.289948 0.000000 0.000000
		CHANNELS 6 Xposition Yposition Zposition Zrotation Yrotation Xrotation
		JOINT RightLeg
		{
			OFFSET 0.000000 0.000000 -38.200329
			CHANNELS 6 Xposition Yposition Zposition Zrotation Yrotation Xrotation
			JOINT RightFoot
			{
				OFFSET 0.000000 0.000000 -39.900856
				CHANNELS 6 Xposition Yposition Zposition Zrotation Yrotation Xrotation
				JOINT RightToeBase
				{
					OFFSET 0.000000 -15.261658 0.000002
					CHANNELS 6 Xposition Yposition Zposition Zrotation Yrotation Xrotation
					JOINT RightToeBaseEnd
					{
						OFFSET 0.000000 -7.370728 0.000000
						CHANNELS 6 Xposition Yposition Zposition Zrotation Yrotation Xrotation
						End Site
						{
							OFFSET 0.000000 0.000000 0.100000
						}
					}
				}
				JOINT RightLegEnd
				{
					OFFSET 0.000000 0.000000 0.000000
					CHANNELS 6 Xposition Yposition Zposition Zrotation Yrotation Xrotation
					End Site
					{
						OFFSET 0.000000 0.000000 0.100000
					}
				}
			}
			JOINT RightUpLegEnd
			{
				OFFSET 0.000000 0.000000 0.000000
				CHANNELS 6 Xposition Yposition Zposition Zrotation Yrotation Xrotation
				End Site
				{
					OFFSET 0.000000 0.000000 0.099998
				}
			}
		}
	}
	JOINT LeftUpLeg
	{
		OFFSET 11.315674 0.000000 0.000000
		CHANNELS 6 Xposition Yposition Zposition Zrotation Yrotation Xrotation
		JOINT LeftLeg
		{
			OFFSET 0.000000 0.000000 -38.200329
			CHANNELS 6 Xposition Yposition Zposition Zrotation Yrotation Xrotation
			JOINT LeftFoot
			{
				OFFSET 0.000000 0.000000 -39.900856
				CHANNELS 6 Xposition Yposition Zposition Zrotation Yrotation Xrotation
				JOINT LeftToeBase
				{
					OFFSET 0.000000 -15.261658 0.000002
					CHANNELS 6 Xposition Yposition Zposition Zrotation Yrotation Xrotation
					JOINT LeftToeBaseEnd
					{
						OFFSET 0.000000 -7.539978 0.000000
						CHANNELS 6 Xposition Yposition Zposition Zrotation Yrotation Xrotation
						End Site
						{
							OFFSET 0.000000 0.000000 0.100000
						}
					}
				}
				JOINT LeftLegEnd
				{
					OFFSET 0.000000 0.000000 0.000000
					CHANNELS 6 Xposition Yposition Zposition Zrotation Yrotation Xrotation
					End Site
					{
						OFFSET 0.000000 0.000000 0.100000
					}
				}
			}
			JOINT LeftUpLegEnd
			{
				OFFSET 0.000000 0.000000 0.000000
				CHANNELS 6 Xposition Yposition Zposition Zrotation Yrotation Xrotation
				End Site
				{
					OFFSET 0.000000 0.000000 0.099998
				}
			}
		}
	}
}
MOTION
Frames: 2
Frame Time: 0.016667
-2.414307 2.393372 88.345924 10.298786 1.228219 -1.897239 0.000010 2.080087 8.814272 0.126938 -0.737274 5.667720 -0.000001 0.000004 8.844152 0.174879 1.183699 3.393222 -0.000010 0.000016 11.682266 -4.270813 -0.435242 2.967344 -0.000006 0.000002 11.746704 -1.491712 -1.388099 2.632277 0.000013 -0.000007 17.658268 -3.744050 -7.652630 0.467262 -0.000006 0.000017 5.101523 -0.825200 0.034889 -4.722759 0.000007 -0.000004 5.101504 -1.267722 0.710632 -18.063678 0.000002 -0.000000 11.655066 0.000000 0.000000 0.000001 -2.625404 0.000016 11.175229 8.380989 -81.888381 0.071593 -0.000022 -0.000021 10.434696 18.563428 -78.728305 -17.777248 0.000006 0.000031 29.628410 35.887668 3.208070 12.803755 -0.000088 0.000027 22.857628 30.174089 19.816138 -7.170404 -2.867302 -2.944199 3.959541 32.633486 -12.963995 58.544830 0.000006 0.000015 3.350388 -3.390244 3.021798 -6.580518 -0.000007 0.000008 3.756526 -2.317127 2.140129 -4.549776 -0.000030 -0.000001 3.147328 0.000000 -0.000001 0.000001 -0.086761 -2.345222 10.030869 -4.214532 27.606057 18.839644 0.000028 0.000017 4.061084 0.578030 -0.079382 -0.000654 0.000014 -0.000023 3.248875 0.073095 0.043927 -0.003171 0.000014 -0.000003 2.639720 0.000001 -0.000001 -0.000000 0.104103 -0.006713 9.502960 0.484048 23.164680 15.873834 0.000011 -0.000026 4.568718 0.639224 -0.000411 -0.000096 0.000000 -0.000005 3.654978 0.118628 0.000000 0.000044 0.000031 0.000006 2.741249 -0.000003 0.000000 0.000001 0.086754 2.267529 8.921715 7.799005 16.599822 11.952863 0.000011 0.000012 4.061092 -1.118829 0.027405 0.004446 -0.000010 0.000026 3.654980 -0.093788 -0.014845 0.019618 -0.000013 -0.000005 2.741230 -0.000001 -0.000001 -0.000001 -0.173481 4.467312 7.976986 15.556517 11.787378 5.903262 0.000009 0.000001 3.350389 -2.053664 -0.114870 0.004106 0.000007 -0.000014 2.842758 -0.045785 0.061717 -0.002846 -0.000014 0.000015 2.639719 -0.000002 0.000001 -0.000002 -0.000010 0.000057 -0.000021 0.000002 0.000000 0.000001 -0.000026 0.000010 0.000031 -0.000002 0.000001 -0.000001 2.625389 0.000009 11.175233 -8.913157 79.599564 -0.169553 0.000005 -0.000019 10.813650 -28.410409 85.719250 -28.231832 -0.000006 -0.000008 28.724779 -15.833891 0.819252 31.101335 0.644348 0.328896 25.716118 -58.098252 -36.490354 -8.690880 2.867271 -2.944290 3.959503 -32.936313 12.199601 59.927970 0.000014 -0.000089 3.350437 1.805622 -1.696593 -3.566008 -0.000034 -0.000013 3.756518 1.242629 -1.190187 -2.470559 -0.000016 0.000002 3.100020 0.000000 -0.000002 -0.000001 0.086719 -2.345284 10.030914 -14.109743 -25.018754 28.147975 -0.000020 0.000023 4.061097 0.507543 0.000007 0.000128 -0.000028 -0.000029 3.248912 0.192028 -0.000001 -0.003055 -0.000019 0.000002 2.639734 -0.000001 -0.000000 0.000002 -0.104113 -0.006767 9.502922 -7.544550 -20.501682 21.053510 -0.000023 -0.000040 4.568781 0.667895 0.000032 0.000077 -0.000032 -0.000061 3.655002 0.144013 0.000004 -0.008079 -0.000030 -0.000008 2.741285 0.000001 -0.000001 -0.000003 -0.086842 2.267424 8.921715 2.621614 -11.293825 14.167397 -0.000076 0.000015 4.061101 -1.068073 0.000150 0.000353 -0.000016 0.000002 3.654981 -0.151886 0.000003 0.011000 -0.000061 0.000008 2.741274 0.000001 0.000000 -0.000003 0.173495 4.467171 7.977001 12.493061 -4.116087 9.117441 -0.000015 0.000030 3.350378 -2.001007 0.000004 0.000005 -0.000051 -0.000068 2.842742 -0.028623 0.000004 0.001217 -0.000036 0.000026 2.639691 -0.000003 0.000001 0.000001 -0.000013 0.000014 0.000003 -0.000002 0.000003 0.000001 -0.000012 0.000012 -0.000017 -0.000001 0.000000 0.000000 -11.289917 0.000005 0.000017 -9.745016 -4.744959 1.725595 0.000042 0.000010 -38.200317 -0.119884 0.019264 10.962280 -0.000022 -0.000082 -39.900879 -11.682599 4.503019 15.987338 0.000010 -15.261768 0.000044 0.240162 0.241016 -21.477028 0.000006 -7.370671 -0.000000 0.000001 -0.000000 0.000000 -0.000012 -0.000002 0.000000 0.000000 0.000000 -0.000002 0.000030 0.000061 0.000000 -0.000000 0.000000 0.000000 11.315667 0.000013 0.000021 -10.451754 -1.637048 -8.573259 -0.000002 0.000028 -38.200306 0.220640 -0.100403 24.465731 0.000023 0.000013 -39.900852 7.444166 -1.517697 14.341265 0.000021 -15.261691 0.000016 0.186738 -0.953820 -23.510379 0.000001 -7.539979 0.000000 0.000000 -0.000000 -0.000000 -0.000000 -0.000004 -0.000001 0.000001 -0.000001 0.000006 0.000000 0.000060 -0.000006 0.000000 -0.000000 -0.000000 
-2.495483 2.502808 88.088478 10.022515 1.563635 -2.453380 0.000009 2.080082 8.814250 0.139127 -0.599151 6.512307 0.000013 -0.000014 8.844154 0.181211 1.190786 3.834582 -0.000007 -0.000001 11.682279 -4.512230 -0.469176 3.211482 -0.000008 -0.000001 11.746678 -1.579721 -1.589088 2.716906 0.000010 -0.000009 17.658268 -3.246476 -7.944947 -1.328864 -0.000005 -0.000024 5.101507 -0.054404 -0.113916 -5.587698 0.000013 -0.000015 5.101520 -1.305650 0.943583 -18.177864 -0.000001 -0.000001 11.655083 0.000000 0.000000 0.000001 -2.625397 -0.000001 11.175241 8.546719 -81.721615 0.066065 -0.000001 0.000023 10.434679 18.460343 -79.134326 -17.563003 0.000000 0.000023 29.628431 37.535571 3.118813 13.477559 -0.000099 0.000027 22.857586 33.682378 20.093711 -6.570557 -2.867317 -2.944290 3.959526 32.577059 -13.119574 58.269423 0.000005 -0.000013 3.350380 -3.715619 3.276713 -7.188208 0.000003 0.000005 3.756481 -2.536249 2.325388 -4.967867 0.000009 -0.000009 3.147339 0.000001 -0.000001 -0.000000 -0.086761 -2.345228 10.030869 -4.377265 26.558426 18.750454 0.000035 0.000014 4.061083 0.575124 0.039582 0.000542 -0.000008 0.000012 3.248870 0.070372 -0.021763 -0.003181 -0.000037 0.000006 2.639726 -0.000000 0.000001 0.000002 0.104103 -0.006781 9.502960 0.282670 22.048286 15.675475 -0.000010 0.000004 4.568754 0.634018 -0.000326 -0.000095 -0.000015 -0.000022 3.654982 0.114185 -0.000005 0.000038 -0.000015 -0.000011 2.741244 -0.000000 -0.000000 -0.000003 0.086758 2.267426 8.921700 7.526563 15.340992 11.403667 0.000006 0.000029 4.061093 -1.114178 -0.000007 0.004662 0.000005 -0.000016 3.654979 -0.090052 -0.000002 0.018834 0.000002 -0.000004 2.741224 0.000001 0.000001 -0.000001 -0.173481 4.467215 7.976978 15.253448 10.589249 4.745580 0.000031 -0.000020 3.350398 -2.051358 -0.000004 -0.000011 0.000008 0.000003 2.842744 -0.043824 0.000006 -0.002622 0.000013 -0.000016 2.639717 0.000002 0.000001 -0.000000 -0.000004 -0.000019 -0.000025 0.000003 0.000001 0.000001 -0.000009 0.000002 -0.000012 0.000000 -0.000000 0.000001 2.625389 -0.000022 11.175197 -9.563946 79.234231 -0.163513 -0.000032 0.000018 10.813610 9.516549 87.140175 10.925093 -0.000029 -0.000053 28.724768 -15.531620 0.687223 30.702001 0.644367 0.328880 25.716160 -61.434635 -37.175132 -7.539987 2.867249 -2.944275 3.959511 -33.000926 12.049503 60.205672 0.000004 -0.000088 3.350423 1.497324 -1.421724 -2.967507 -0.000072 -0.000019 3.756525 1.031963 -0.995546 -2.057102 -0.000030 0.000003 3.100006 -0.000000 0.000000 0.000000 0.086677 -2.345261 10.030884 -14.191041 -25.400883 29.100984 -0.000076 -0.000019 4.061102 0.507100 0.000121 0.000125 -0.000031 -0.000016 3.248861 0.186298 -0.000008 -0.002975 -0.000019 0.000002 2.639710 -0.000001 -0.000002 0.000000 -0.104102 -0.006737 9.502899 -7.472784 -20.215231 21.641907 0.000002 -0.000064 4.568762 0.662270 0.000114 0.000077 -0.000014 -0.000035 3.655005 0.139186 -0.000003 -0.007857 -0.000042 0.000001 2.741243 0.000001 0.000003 0.000002 -0.086842 2.267469 8.921684 2.825716 -10.054788 14.721225 -0.000043 -0.000015 4.061088 -1.065597 -0.000026 0.000348 -0.000064 0.000024 3.655007 -0.146687 -0.000003 0.010924 -0.000014 -0.000015 2.741275 0.000001 0.000002 -0.000004 0.173504 4.467152 7.976967 12.766833 -2.484648 9.517689 -0.000026 -0.000001 3.350396 -2.000938 0.000003 -0.000001 -0.000043 0.000027 2.842751 -0.026640 -0.000002 -0.000003 -0.000028 -0.000003 2.639708 -0.000000 0.000001 -0.000001 -0.000005 0.000010 -0.000029 -0.000000 0.000002 0.000001 -0.000002 0.000004 0.000006 0.000001 0.000001 -0.000001 -11.289919 -0.000021 -0.000009 -8.820351 -5.146715 0.303811 0.000018 -0.000003 -38.200317 -0.059109 0.018021 14.576664 -0.000019 -0.000023 -39.900856 -12.610962 3.998739 14.539012 -0.000007 -15.261723 0.000033 0.298197 0.099550 -21.632512 0.000012 -7.370678 0.000000 0.000002 -0.000000 -0.000000 -0.000004 -0.000004 0.000001 0.000001 0.000000 0.000003 0.000031 0.000061 0.000004 0.000000 -0.000000 0.000000 11.315651 -0.000044 -0.000001 -9.895453 -1.981636 -9.026406 -0.000017 0.000002 -38.200310 0.227061 -0.112724 26.437885 -0.000001 0.000012 -39.900848 7.175617 -1.241732 13.405832 0.000020 -15.261680 -0.000001 0.163340 -0.986891 -23.274838 0.000007 -7.539973 0.000000 -0.000001 -0.000000 0.000000 -0.000004 -0.000001 0.000001 0.000000 -0.000000 0.000004 0.000000 0.000062 -0.000007 0.000000 -0.000000 0.000000 
